PathFileType	4	(X/Y/Z)	A:\Common\BMMB\PROJECTS\STRATO\DataSTRATO\DataSTRATO\0021~016 ID\0021~aa~ID 016\Standing_STRATO_ID_16.trc
DataRate	CameraRate	NumFrames	NumMarkers	Units	OrigDataRate	OrigDataStartFrame	OrigNumFrames
250.00	250.00	5	22	mm	250.00	1655	3281
Frame#	Time	r.should			l.should			c7			r.asis			l.asis			sacrum			r.bar1			l.bar1			r.knee1			l.knee1			r.bar2			r.mall			l.bar2			l.mall			r.met			r.heel			l.heel			l.met			r.mallm			l.mallm			r.kneem			l.kneem			
		X1	Y1	Z1	X2	Y2	Z2	X3	Y3	Z3	X4	Y4	Z4	X5	Y5	Z5	X6	Y6	Z6	X7	Y7	Z7	X8	Y8	Z8	X9	Y9	Z9	X10	Y10	Z10	X11	Y11	Z11	X12	Y12	Z12	X13	Y13	Z13	X14	Y14	Z14	X15	Y15	Z15	X16	Y16	Z16	X17	Y17	Z17	X18	Y18	Z18	X19	Y19	Z19	X20	Y20	Z20	X21	Y21	Z21	X22	Y22	Z22	

1654	6.616000	338.220239	1332.107902	295.393407	40.468145	1349.075794	290.422678	198.729441	1389.824033	378.255814	295.091748	889.508247	147.339255	55.115670	877.630949	167.455882	191.795513	953.224957	380.287945	390.983760	815.497339	233.931839	-12.095655	791.737199	265.784651	350.651681	465.408862	278.473526	13.086462	468.123525	352.587491	337.008357	414.066792	273.972690	328.185439	70.524678	304.954797	10.334164	424.160182	362.333834	49.179196	53.471282	336.811632	295.200974	36.755390	163.525611	286.383569	37.214864	362.722695	96.088283	32.168381	401.207477	75.574599	36.226716	196.397752	243.505105	78.512460	299.192548	129.707009	79.542324	329.810292	207.245469	440.585673	320.874095	160.181090	445.748597	360.400677	
1655	6.620000	338.223457	1332.095265	295.394987	40.469397	1349.091172	290.414423	198.741287	1389.819741	378.276467	295.082390	889.505804	147.302136	55.119462	877.648354	167.459160	191.808462	953.215778	380.284309	390.988588	815.492511	233.920306	-12.085670	791.743994	265.821368	350.651026	465.400726	278.478026	13.097113	468.130350	352.575213	337.010354	414.063543	273.954064	328.184754	70.526868	304.948598	10.339819	424.171150	362.349808	49.282338	54.290727	335.488915	295.198560	36.770839	163.511336	286.388844	37.216790	362.729311	96.085668	32.170985	401.205003	75.571632	36.218494	196.389526	243.518040	78.522421	299.214184	129.702941	79.549238	329.793572	207.249060	440.586358	320.868343	160.189986	445.753396	360.423237	
1656	6.624000	338.216960	1332.089424	295.389622	40.464375	1349.097252	290.473074	198.745862	1389.816880	378.293663	295.078933	889.509559	147.282094	55.123873	877.679348	167.429522	191.808045	953.215778	380.288810	390.974343	815.511465	233.900070	-12.095083	791.744232	265.866697	350.656271	465.398103	278.466910	13.087865	468.137145	352.634192	337.010682	414.055407	273.944795	328.186184	70.518009	304.932058	10.345567	424.172282	362.378657	49.320120	54.488108	335.144013	295.189023	36.759138	163.503498	286.391556	37.202589	362.734824	96.094429	32.152079	401.202023	75.572530	36.206421	196.386665	243.521869	78.515835	299.216449	129.690081	79.547673	329.783201	207.254991	440.591067	320.866048	160.209522	445.767313	360.440731	
1657	6.628000	338.230580	1332.089663	295.405477	40.468503	1349.097967	290.484190	198.740840	1389.798403	378.300458	295.066416	889.520407	147.283316	55.122770	877.682865	167.482913	191.818938	953.211069	380.268097	390.973538	815.505624	233.888373	-12.108536	791.751266	265.862763	350.657851	465.396166	278.466731	13.083324	468.130261	352.665752	337.013423	414.049596	273.954391	328.187138	70.514500	304.921806	10.352902	424.149990	362.362027	49.255520	54.072157	335.845411	295.192719	36.761001	163.489580	286.393136	37.193585	362.734228	96.108049	32.147311	401.205838	75.576836	36.191370	196.388200	243.511140	78.507483	299.217403	129.693627	79.561532	329.783648	207.261026	440.581143	320.864618	160.221860	445.762157	360.431105	
1658	6.632000	338.244826	1332.087517	295.414090	40.488135	1349.104285	290.480822	198.746800	1389.796019	378.313214	295.047462	889.526606	147.276267	55.111717	877.680063	167.525142	191.815540	953.207791	380.279303	390.966058	815.483451	233.866572	-12.103313	791.756749	265.837848	350.650996	465.377450	278.472960	13.080929	468.117923	352.709413	337.013066	414.039433	273.976535	328.187048	70.510127	304.929674	10.343950	424.163759	362.372160	49.165826	53.467926	336.854964	295.192391	36.755245	163.478836	286.384493	37.188254	362.739205	96.119702	32.131243	401.188970	75.584094	36.174238	196.393192	243.501425	78.496322	299.216658	129.681543	79.548404	329.793215	207.261875	440.582633	320.865750	160.228968	445.767432	360.416889	
